<svg xmlns="http://www.w3.org/2000/svg" aria-hidden="true" style="position:absolute;width:0;height:0;overflow:hidden">
  <defs>
    <symbol id="van" viewBox="0 0 32 32">
      <path d="M12 2H2v28h10zm18 0H20v10h10zm0 18v10H20V20zM0 2a2 2 0 0 1 2-2h10a2 2 0 0 1 2 2v28a2 2 0 0 1-2 2H2a2 2 0 0 1-2-2zm18 0a2 2 0 0 1 2-2h10a2 2 0 0 1 2 2v10a2 2 0 0 1-2 2H20a2 2 0 0 1-2-2zm2 16a2 2 0 0 0-2 2v10a2 2 0 0 0 2 2h10a2 2 0 0 0 2-2V20a2 2 0 0 0-2-2z"/>
    </symbol>
    <symbol id="alcove" viewBox="0 0 32 32">
      <path d="M8 4v4H4V4zm2 24v-4a2 2 0 0 0-2-2H4a2 2 0 0 0-2 2v4a2 2 0 0 0 2 2h4a2 2 0 0 0 2-2m0-10v-4a2 2 0 0 0-2-2H4a2 2 0 0 0-2 2v4a2 2 0 0 0 2 2h4a2 2 0 0 0 2-2m0-10V4a2 2 0 0 0-2-2H4a2 2 0 0 0-2 2v4a2 2 0 0 0 2 2h4a2 2 0 0 0 2-2m10 20v-4a2 2 0 0 0-2-2h-4a2 2 0 0 0-2 2v4a2 2 0 0 0 2 2h4a2 2 0 0 0 2-2m0-10v-4a2 2 0 0 0-2-2h-4a2 2 0 0 0-2 2v4a2 2 0 0 0 2 2h4a2 2 0 0 0 2-2m0-10V4a2 2 0 0 0-2-2h-4a2 2 0 0 0-2 2v4a2 2 0 0 0 2 2h4a2 2 0 0 0 2-2m-2-4v4h-4V4zm10 0v4h-4V4zM8 14v4H4v-4zm10 0v4h-4v-4zm10 0h-4v4h4zM8 24v4H4v-4zm10 0v4h-4v-4zm10 0v4h-4v-4zM24 2a2 2 0 0 0-2 2v4a2 2 0 0 0 2 2h4a2 2 0 0 0 2-2V4a2 2 0 0 0-2-2zm-2 12a2 2 0 0 1 2-2h4a2 2 0 0 1 2 2v4a2 2 0 0 1-2 2h-4a2 2 0 0 1-2-2zm2 8a2 2 0 0 0-2 2v4a2 2 0 0 0 2 2h4a2 2 0 0 0 2-2v-4a2 2 0 0 0-2-2z"/>
    </symbol>
    <symbol id="fully_integrated" viewBox="0 0 32 32">
      <path d="M2 5a3.004 3.004 0 0 1 3-3h6a3.004 3.004 0 0 1 3 3v6a3.004 3.004 0 0 1-3 3H5a3.004 3.004 0 0 1-3-3zm3-1a.997.997 0 0 0-1 1v6a.997.997 0 0 0 1 1h6a.997.997 0 0 0 1-1V5a.997.997 0 0 0-1-1zm13 1a3.004 3.004 0 0 1 3-3h6a3.004 3.004 0 0 1 3 3v6a3.004 3.004 0 0 1-3 3h-6a3.004 3.004 0 0 1-3-3zm3-1a.997.997 0 0 0-1 1v6a.997.997 0 0 0 1 1h6a.997.997 0 0 0 1-1V5a.997.997 0 0 0-1-1zM2 21a3.004 3.004 0 0 1 3-3h6a3.004 3.004 0 0 1 3 3v6a3.004 3.004 0 0 1-3 3H5a3.004 3.004 0 0 1-3-3zm3-1a.997.997 0 0 0-1 1v6a.997.997 0 0 0 1 1h6a.997.997 0 0 0 1-1v-6a.997.997 0 0 0-1-1zm13 1a3.004 3.004 0 0 1 3-3h6a3.004 3.004 0 0 1 3 3v6a3.004 3.004 0 0 1-3 3h-6a3.004 3.004 0 0 1-3-3zm3-1a.997.997 0 0 0-1 1v6a.997.997 0 0 0 1 1h6a.997.997 0 0 0 1-1v-6a.997.997 0 0 0-1-1z"/>
    </symbol>
    <symbol id="kitchen" viewBox="0 0 32 32">
      <path d="M1 12a1 1 0 0 0-.779.374 1 1 0 0 0-.197.842l3.304 14.868A5 5 0 0 0 8.208 32h11.584a4.996 4.996 0 0 0 4.88-3.916l.262-1.18a6 6 0 0 0 2.601-11.708l.442-1.98A1.003 1.003 0 0 0 27.001 12h-26zm25 13a4 4 0 0 1-.632-.05l1.734-7.796A4.002 4.002 0 0 1 26 25M5.28 27.65 2.246 14h23.508L22.72 27.65A2.995 2.995 0 0 1 19.792 30H8.208a3 3 0 0 1-2.928-2.35M8.8 1.6l-.006.008-.028.038q-.219.3-.408.62a4 4 0 0 0-.282.534c-.052.12-.068.184-.074.206v.008c.023.177.085.346.182.496.15.266.356.544.616.89l.02.024c.236.316.52.694.74 1.086.224.4.44.91.44 1.49 0 .376-.13.736-.238.988a6 6 0 0 1-.404.776 10 10 0 0 1-.506.764l-.036.05-.01.016-.004.004a1.004 1.004 0 0 1-1.4.202A1.004 1.004 0 0 1 7.2 8.4l.006-.008.028-.038q.219-.3.408-.62.161-.256.282-.534c.052-.12.068-.184.074-.206a1.2 1.2 0 0 0-.18-.504A8 8 0 0 0 7.2 5.6l-.02-.024q-.405-.518-.74-1.086A3.07 3.07 0 0 1 6 3c0-.376.13-.736.238-.988.118-.276.268-.548.404-.776q.239-.392.506-.764l.05-.07A1.004 1.004 0 0 1 8.598.2 1.004 1.004 0 0 1 8.8 1.6m6 0-.006.008-.028.038q-.219.3-.408.62a4 4 0 0 0-.282.534c-.052.12-.068.184-.074.206v.008c.023.177.085.346.182.496.15.266.356.544.616.89l.02.024c.236.316.52.694.74 1.086.224.4.44.91.44 1.49 0 .376-.13.736-.238.988a6 6 0 0 1-.404.776 10 10 0 0 1-.506.764l-.036.05-.01.016-.004.004a1.004 1.004 0 0 1-1.4.202 1.004 1.004 0 0 1-.202-1.4l.006-.008.028-.038q.219-.3.408-.62.161-.256.282-.534c.052-.12.068-.184.074-.206a1.2 1.2 0 0 0-.18-.504 8 8 0 0 0-.618-.89l-.02-.024q-.405-.518-.74-1.086A3.07 3.07 0 0 1 12 3c0-.376.13-.736.238-.988.118-.276.268-.548.404-.776q.239-.392.506-.764l.05-.07a1.004 1.004 0 0 1 1.4-.202 1.004 1.004 0 0 1 .202 1.4m6 0-.006.008-.028.038q-.219.3-.408.62a4 4 0 0 0-.282.534c-.052.12-.068.184-.074.206v.008c.023.177.085.346.182.496.15.266.356.544.616.89l.02.024c.236.316.52.694.74 1.086.224.4.44.91.44 1.49 0 .376-.13.736-.238.988a6 6 0 0 1-.404.776 10 10 0 0 1-.504.764l-.038.05-.01.016-.004.004a1.004 1.004 0 0 1-1.4.202 1.004 1.004 0 0 1-.202-1.4l.006-.008.028-.038q.219-.3.408-.62.161-.256.282-.534c.052-.12.068-.184.074-.206a1.2 1.2 0 0 0-.18-.504 8 8 0 0 0-.618-.89l-.02-.024q-.405-.518-.74-1.086A3.07 3.07 0 0 1 18 3c0-.376.13-.736.238-.988.118-.276.268-.548.404-.776q.239-.392.506-.764l.05-.07a1.004 1.004 0 0 1 1.4-.202 1.004 1.004 0 0 1 .202 1.4"/>
    </symbol>
    <symbol id="automatic" viewBox="0 0 32 32">
      <path d="M12 7a3.004 3.004 0 0 1 3-3h2a3.004 3.004 0 0 1 3 3v2a3.004 3.004 0 0 1-3 3v2h11a.997.997 0 0 1 1 1v2a.997.997 0 0 1-1 1 .997.997 0 0 1-1-1v-1H17v1a.997.997 0 0 1-1 1 .997.997 0 0 1-1-1v-1H5v1a.997.997 0 0 1-1 1 .997.997 0 0 1-1-1v-2a.997.997 0 0 1 1-1h11v-2a3.004 3.004 0 0 1-3-3zm5 3a.997.997 0 0 0 1-1V7a.997.997 0 0 0-1-1h-2a.997.997 0 0 0-1 1v2a.997.997 0 0 0 1 1zM0 23a3.004 3.004 0 0 1 3-3h2a3.004 3.004 0 0 1 3 3v2a3.004 3.004 0 0 1-3 3H3a3.004 3.004 0 0 1-3-3zm3-1a.997.997 0 0 0-1 1v2a.997.997 0 0 0 1 1h2a.997.997 0 0 0 1-1v-2a.997.997 0 0 0-1-1zm9 1a3.004 3.004 0 0 1 3-3h2a3.004 3.004 0 0 1 3 3v2a3.004 3.004 0 0 1-3 3h-2a3.004 3.004 0 0 1-3-3zm3-1a.997.997 0 0 0-1 1v2a.997.997 0 0 0 1 1h2a.997.997 0 0 0 1-1v-2a.997.997 0 0 0-1-1zm9 1a3.004 3.004 0 0 1 3-3h2a3.004 3.004 0 0 1 3 3v2a3.004 3.004 0 0 1-3 3h-2a3.004 3.004 0 0 1-3-3zm3-1a.997.997 0 0 0-1 1v2a.997.997 0 0 0 1 1h2a.997.997 0 0 0 1-1v-2a.997.997 0 0 0-1-1z"/>
    </symbol>
    <symbol id="petrol" viewBox="0 0 32 32">
      <path d="M6 5a.997.997 0 0 1 1-1h10a.997.997 0 0 1 1 1v10a.997.997 0 0 1-1 1H7a.997.997 0 0 1-1-1z"/>
      <path d="M2 4a4.003 4.003 0 0 1 4-4h12a4.003 4.003 0 0 1 4 4v16a4.003 4.003 0 0 1 4 4v1a.997.997 0 0 0 1 1 .997.997 0 0 0 1-1v-9h-1a.997.997 0 0 1-1-1V8.75a.997.997 0 0 1 1-1h2.99c-.022-.952-.106-1.788-.402-2.444a1.94 1.94 0 0 0-.788-.916C28.432 4.17 27.872 4 27 4a.997.997 0 0 1-1-1 .997.997 0 0 1 1-1q1.692-.004 2.824.672c.766.456 1.268 1.102 1.588 1.814.59 1.31.588 2.93.588 4.162v6.35q0 .2-.076.383a.8.8 0 0 1-.217.325 1 1 0 0 1-.708.293h-1v9a3.004 3.004 0 0 1-3 3 3 3 0 0 1-3-3v-1a2 2 0 0 0-2-2v8h1a.997.997 0 0 1 1 1 .997.997 0 0 1-1 1h-22a.997.997 0 0 1-1-1 .997.997 0 0 1 1-1h1zm18 0a2 2 0 0 0-2-2H6a2 2 0 0 0-2 2v26h16z"/>
    </symbol>
    <symbol id="gas" viewBox="0 0 32 32">
      <path stroke-linecap="round" stroke-linejoin="round" stroke-width="2.4" d="M8 2.667h16c4.413 0 5.333.92 5.333 5.333v16c0 4.413-.92 5.333-5.333 5.333H8c-4.413 0-5.333-.92-5.333-5.333V8c0-4.413.92-5.333 5.333-5.333m0 22.666h5.333M24 25.345v-.012"/>
      <path stroke-linecap="round" stroke-linejoin="round" stroke-width="2.4" d="M16 18.667A5.333 5.333 0 1 1 16 8a5.333 5.333 0 0 1 0 10.667M20.667 13.333h2M16 18v2m-4.667-6.667h-2M16 8.667v-2"/>
    </symbol>
    <symbol id="water" viewBox="0 0 32 32">
      <path stroke-width="2" d="M16 29c-5.523 0-9-3.477-9-9 0-5.927 6.452-13.928 8.431-16.242a.76.76 0 0 1 .57-.263.74.74 0 0 1 .57.263c1.978 2.314 8.43 10.316 8.43 16.242 0 5.523-3.477 9-9 9z"/>
      <path stroke-linecap="round" stroke-linejoin="round" stroke-width="2" d="M21.5 20.5A4.5 4.5 0 0 1 17 25"/>
    </symbol>
    <symbol id="logo" viewBox="0 0 272 32">
      <path fill="#475467" d="M270.786 14.375h-7.216a1.98 1.98 0 0 0-.47-1.151 2.64 2.64 0 0 0-1.064-.739q-.64-.27-1.422-.27-1.009 0-1.732.369-.725.37-.71 1.051-.014.483.412.895.438.412 1.69.639l4.432.795q3.351.61 4.986 2.06 1.647 1.435 1.662 3.849-.015 2.33-1.392 4.048-1.365 1.704-3.736 2.642-2.359.924-5.384.923-5 0-7.826-2.046-2.813-2.046-3.14-5.398h7.784a2.24 2.24 0 0 0 1.022 1.605q.882.554 2.216.554 1.08 0 1.776-.369.712-.37.724-1.051-.013-.625-.624-.994-.598-.369-1.876-.597l-3.862-.682q-3.339-.582-5-2.216c-1.661-1.634-1.658-2.491-1.648-4.205q-.014-2.273 1.192-3.849 1.221-1.592 3.48-2.415 2.274-.838 5.384-.838 4.731 0 7.458 1.96 2.741 1.96 2.884 5.426zM232.83 23.92l4.09-5.227h2.216L248 7.273h-8.806l-5.284 7.33h-1.024zm-7.046 5.171V0h7.842v29.091zm13.466 0-5-8.636 5.114-5.568 8.864 14.205h-8.978zM211.238 29.489q-3.552 0-6.08-1.406-2.529-1.42-3.878-3.949-1.35-2.543-1.349-5.895c.001-3.352.449-4.195 1.349-5.881a9.56 9.56 0 0 1 3.878-3.949q2.529-1.42 6.08-1.42 3.21 0 5.554 1.165 2.358 1.15 3.65 3.267 1.293 2.102 1.308 4.943h-7.274q-.157-1.719-.994-2.614-.825-.909-2.13-.909-1.024 0-1.79.597-.768.582-1.194 1.776-.426 1.18-.426 2.969c0 1.789.142 2.188.426 2.983q.426 1.179 1.194 1.776.766.582 1.79.582.864 0 1.534-.398.667-.412 1.078-1.193.428-.795.512-1.932h7.274q-.045 2.884-1.322 5.028-1.279 2.131-3.622 3.296-2.331 1.164-5.568 1.165zM188.097 19.545V7.272h7.841V29.09h-7.443v-4.148h-.227q-.71 2.088-2.486 3.267-1.776 1.165-4.219 1.165-2.287 0-4.006-1.051-1.704-1.052-2.656-2.898-.937-1.846-.952-4.233V7.271h7.841v12.273q.014 1.62.824 2.543.824.924 2.301.923.98 0 1.69-.412a2.8 2.8 0 0 0 1.108-1.193q.398-.781.383-1.861zM155.806 29.091V7.273h7.614v4.148h.227q.597-2.301 1.889-3.366 1.306-1.065 3.054-1.065.511 0 1.009.085.512.07.98.213v6.69q-.582-.2-1.435-.298c-.853-.098-1.056-.099-1.463-.099q-1.15 0-2.074.526a3.7 3.7 0 0 0-1.435 1.449q-.525.924-.526 2.173v11.364h-7.841zM128.902 6.364V0h25.284v6.364h-8.75v22.727h-7.784V6.364z" style="fill:var(--color1, #475467)"/>
      <path fill="#101828" d="M125.016 0v29.091h-7.841V0zM102.493 29.489q-3.495 0-6.023-1.335a9.36 9.36 0 0 1-3.878-3.864q-1.35-2.529-1.349-6.051 0-3.38 1.364-5.909c1.364-2.529 2.192-2.997 3.849-3.935s3.613-1.406 5.866-1.406q2.471 0 4.475.767c2.004.767 2.476 1.255 3.423 2.23q1.42 1.449 2.188 3.523c.768 2.074.767 2.94.767 4.673V20H93.686v-4.318h12.273q-.014-.937-.483-1.648a3.07 3.07 0 0 0-1.236-1.122q-.767-.412-1.747-.412-.952 0-1.747.412-.795.397-1.278 1.108-.469.71-.497 1.662v4.659q0 1.052.44 1.875c.44.823.715.98 1.264 1.293q.824.47 1.989.469.81 0 1.477-.227a3.3 3.3 0 0 0 1.165-.653q.483-.44.71-1.051h7.159q-.37 2.272-1.747 3.949-1.378 1.662-3.651 2.585-2.259.909-5.284.909zM89.673 7.273l-7.33 21.818h-9.091L65.923 7.273h8.239l3.523 14.432h.227l3.523-14.432h8.239zM50.112 29.432q-2.088 0-3.693-.682-1.591-.696-2.5-2.102c-.909-1.406-.909-2.131-.909-3.58q0-1.79.611-3.054.61-1.278 1.705-2.088c1.095-.81 1.577-.952 2.543-1.236a15.4 15.4 0 0 1 3.153-.554q1.833-.142 2.94-.341 1.122-.213 1.619-.582.497-.384.497-1.009v-.057q0-.852-.653-1.307c-.653-.455-.994-.455-1.676-.455q-1.122 0-1.832.497-.696.483-.838 1.491h-7.216a7.44 7.44 0 0 1 1.264-3.665q1.137-1.69 3.31-2.699 2.173-1.023 5.426-1.023 2.344 0 4.205.554 1.86.54 3.168 1.52 1.307.966 1.989 2.273a5.84 5.84 0 0 1 .696 2.813v14.943h-7.329v-3.068h-.171q-.654 1.222-1.591 1.974a5.85 5.85 0 0 1-2.117 1.094q-1.179.34-2.599.341zm2.557-4.943q.895 0 1.676-.369.795-.369 1.293-1.065c.498-.696.497-1.027.497-1.69v-1.818a9 9 0 0 1-.668.241 13.888 13.888 0 0 1-1.563.398q-.426.085-.895.156-.909.142-1.492.469-.568.313-.852.781-.27.454-.27 1.023 0 .909.639 1.392c.639.483.971.483 1.633.483zM26.904 29.091V7.273h7.614v4.148h.227q.596-2.301 1.889-3.366 1.307-1.065 3.054-1.065.511 0 1.008.085.512.07.98.213v6.69q-.582-.2-1.435-.298c-.853-.098-1.056-.099-1.463-.099q-1.15 0-2.074.526a3.7 3.7 0 0 0-1.435 1.449q-.525.924-.525 2.173v11.364h-7.841zM0 6.364V0h25.284v6.364h-8.75v22.727H8.75V6.364z" style="fill:var(--color2, #101828)"/>
    </symbol>
    <symbol id="microwave" viewBox="0 0 32 32">
      <path stroke-linecap="round" stroke-linejoin="round" stroke-width="2" d="M26.667 5.333A2.667 2.667 0 0 1 29.334 8v14.667a2.667 2.667 0 0 1-2.667 2.667H5.334a2.667 2.667 0 0 1-2.667-2.667V8a2.667 2.667 0 0 1 2.667-2.667z"/>
      <path stroke-linecap="round" stroke-linejoin="round" stroke-width="2" d="M17.333 10.667c.736 0 1.333.597 1.333 1.333v6.667c0 .736-.597 1.333-1.333 1.333h-8A1.333 1.333 0 0 1 8 18.667V12c0-.736.597-1.333 1.333-1.333zM24 10.667V20M8 25.333V28m16-2.667V28"/>
    </symbol>
    <symbol id="map" viewBox="0 0 32 32">
      <path d="M31.634.226A1 1 0 0 1 32 1v28a1 1 0 0 1-.804.98l-10 2a1 1 0 0 1-.392 0L11 30.02l-9.804 1.96a.995.995 0 0 1-1.1-.552A1 1 0 0 1 0 31V3a1 1 0 0 1 .804-.98l10-2a1 1 0 0 1 .392 0L21 1.98 30.804.02a1 1 0 0 1 .83.206M20 3.82l-8-1.6v25.96l8 1.6zm2 25.96 8-1.6V2.22l-8 1.6zm-12-1.6V2.22l-8 1.6v25.96z"/>
    </symbol>
    <symbol id="bathroom" viewBox="0 0 32 32">
      <path d="M8 29.5a1.495 1.495 0 0 1-.926 1.385 1.5 1.5 0 0 1-1.635-.326 1.5 1.5 0 1 1 2.559-1.061zm2.5-5.5a1.495 1.495 0 0 0-1.385.926 1.5 1.5 0 0 0 .326 1.635 1.5 1.5 0 1 0 1.061-2.559zm-8 0a1.495 1.495 0 0 0-1.385.926 1.5 1.5 0 0 0 .326 1.635 1.5 1.5 0 1 0 1.061-2.559zm4-4a1.495 1.495 0 0 0-1.385.926 1.5 1.5 0 0 0 .326 1.635 1.5 1.5 0 1 0 1.061-2.559zM32 5a.997.997 0 0 1-1 1h-3.586l-3.481 3.482-2.708 15.849a1.999 1.999 0 0 1-3.386 1.083l-12.25-12.25a2.002 2.002 0 0 1 1.086-3.389l15.842-2.709 3.775-3.775A1 1 0 0 1 27 3.998h4a.997.997 0 0 1 1 1zm-10.224 5.224L7 12.75 19.25 25z"/>
    </symbol>
    <symbol id="star" viewBox="0 0 32 32">
      <path d="M20.661 8.834c.145.274.408.466.714.519l7.975 1.38a1 1 0 0 1 .547 1.682l-5.641 5.804a1 1 0 0 0-.273.839l1.152 8.01a1 1 0 0 1-1.431 1.04l-7.263-3.571a1 1 0 0 0-.882 0l-7.262 3.571a1 1 0 0 1-1.431-1.04l1.152-8.01a1 1 0 0 0-.273-.839l-5.64-5.804a1 1 0 0 1 .547-1.682l7.974-1.38a1 1 0 0 0 .714-.519l3.776-7.158a1 1 0 0 1 1.769 0l3.777 7.158z"/>
    </symbol>
    <symbol id="heart" viewBox="0 0 32 32">
      <path d="m16 13.139-1.788-3.578c-.444-.886-1.214-2.16-2.304-3.19C10.836 5.357 9.552 4.667 8 4.667c-3.352 0-6 2.652-6 5.84 0 2.422 1.108 4.132 3.736 6.74.674.668 1.442 1.39 2.292 2.186C10.244 21.513 13 24.101 16 27.561c3-3.46 5.756-6.048 7.972-8.128.85-.796 1.62-1.52 2.292-2.186C28.892 14.639 30 12.929 30 10.507c0-3.188-2.648-5.84-6-5.84-1.554 0-2.836.69-3.908 1.704-1.09 1.03-1.86 2.304-2.304 3.19zm.784 16.584a1.02 1.02 0 0 1-1.216.269 1 1 0 0 1-.352-.269c-3.202-3.804-6.1-6.524-8.486-8.762C2.6 17.083 0 14.645 0 10.507c0-4.33 3.58-7.84 8-7.84 3.2 0 5.438 2.1 6.808 4.016.52.73.916 1.432 1.192 1.984q.52-1.038 1.192-1.984C18.562 4.765 20.8 2.667 24 2.667c4.42 0 8 3.51 8 7.84 0 4.138-2.6 6.576-6.73 10.454-2.386 2.24-5.284 4.962-8.486 8.762"/>
    </symbol>
    <symbol id="refrigerator" viewBox="0 0 32 32">
      <path d="M23.667 9.333a.997.997 0 0 0-1-1 .997.997 0 0 0-1 1V12a.997.997 0 0 0 1 1 .997.997 0 0 0 1-1zm0 9.334a.997.997 0 0 0-1-1 .997.997 0 0 0-1 1v2.667a.997.997 0 0 0 1 1 .997.997 0 0 0 1-1z"/>
      <path d="M16.075 1.667h-.149c-2.451 0-4.392 0-5.911.204-1.563.211-2.828.653-3.827 1.651-.997.999-1.44 2.264-1.651 3.827-.204 1.52-.204 3.46-.204 5.911v4.149c0 2.451 0 4.392.204 5.911.211 1.563.653 2.828 1.651 3.827.613.612 1.325 1.015 2.145 1.284v.904a1 1 0 0 0 1 1h1.333a.997.997 0 0 0 1-1v-.395c1.209.061 2.62.061 4.259.061h.149c1.64 0 3.049 0 4.259-.061v.395a1 1 0 0 0 1 1h1.333a.997.997 0 0 0 1-1v-.904c.82-.269 1.533-.672 2.145-1.284.997-.999 1.44-2.264 1.651-3.827.204-1.52.204-3.46.204-5.911v-4.148c0-2.451 0-4.392-.204-5.911-.211-1.563-.653-2.828-1.651-3.827-.999-.997-2.264-1.44-3.827-1.651-1.52-.204-3.46-.204-5.911-.204zM7.603 4.936c.564-.564 1.337-.903 2.679-1.083 1.371-.184 3.176-.187 5.719-.187s4.349.003 5.72.187c1.34.18 2.113.519 2.677 1.083s.903 1.337 1.083 2.679c.184 1.371.187 3.176.187 5.719v1H6.335v-1c0-2.543.003-4.348.187-5.72.18-1.34.519-2.113 1.083-2.677zm-1.27 11.397h19.333v1c0 2.543-.003 4.349-.187 5.72-.18 1.34-.519 2.113-1.083 2.677s-1.337.903-2.679 1.083c-1.371.184-3.176.187-5.719.187s-4.348-.003-5.72-.187c-1.34-.18-2.113-.519-2.677-1.083s-.903-1.337-1.083-2.679c-.184-1.369-.187-3.176-.187-5.719v-1z"/>
    </symbol>
    <symbol id="tv" viewBox="0 0 32 32">
      <path d="M0 8s0-4 4-4h24s4 0 4 4v12s0 4-4 4h-8q0 2 .5 3H22a.997.997 0 0 1 1 1 .997.997 0 0 1-1 1H10a.997.997 0 0 1-1-1 .997.997 0 0 1 1-1h1.5q.5-1 .5-3H4s-4 0-4-4zm2.796-1.71c-.22.153-.395.361-.508.604A3 3 0 0 0 2 8.02V20c0 .65.156 1.004.29 1.204q.21.312.604.508c.338.162.703.259 1.076.286l.05.002H28c.65 0 1.004-.156 1.204-.29.22-.153.395-.361.508-.604.162-.338.259-.703.286-1.076l.002-.05V8c0-.65-.156-1.004-.29-1.204a1.5 1.5 0 0 0-.604-.508A3 3 0 0 0 27.98 6H4c-.65 0-1.004.156-1.204.29"/>
    </symbol>
    <symbol id="radio" viewBox="0 0 32 32">
      <path d="M14 5a.997.997 0 0 1 1-1h14a.997.997 0 0 1 1 1v2a.997.997 0 0 1-1 1H15a.997.997 0 0 1-1-1zM0 24a5.996 5.996 0 0 1 6-6 6.002 6.002 0 0 1 4.243 10.243A6 6 0 0 1 0 24m14-3a.997.997 0 0 1 1-1h14a.997.997 0 0 1 1 1v2a.997.997 0 0 1-1 1H15a.997.997 0 0 1-1-1zm0-10a.997.997 0 0 1 1-1h10a.997.997 0 0 1 1 1 .997.997 0 0 1-1 1H15a.997.997 0 0 1-1-1m0 16a.997.997 0 0 1 1-1h10a.997.997 0 0 1 1 1 .997.997 0 0 1-1 1H15a.997.997 0 0 1-1-1M6 2a6 6 0 0 0-4.243 1.758A6 6 0 0 0-.001 8.001a6 6 0 0 0 1.758 4.243A6 6 0 0 0 6 14.002a5.996 5.996 0 0 0 6-6 5.996 5.996 0 0 0-6-6zm0 9a3.004 3.004 0 0 1-3-3 3.004 3.004 0 0 1 3-3 3.004 3.004 0 0 1 3 3 3.004 3.004 0 0 1-3 3"/>
    </symbol>
    <symbol id="ac" viewBox="0 0 32 32">
      <path d="M25 4a4.997 4.997 0 0 0-5 5 .997.997 0 0 1-1 1 .997.997 0 0 1-1-1 7.002 7.002 0 0 1 8.366-6.865 7.003 7.003 0 0 1 5.102 9.544c-.53 1.279-1.427 2.372-2.578 3.142s-2.504 1.18-3.889 1.18h-24a.997.997 0 0 1-1-1 .997.997 0 0 1 1-1h24a4.997 4.997 0 0 0 5-5 5 5 0 0 0-5-5zM11 6a2 2 0 0 0-2 2 .997.997 0 0 1-1 1 .997.997 0 0 1-1-1 4 4 0 0 1 2.469-3.695A4 4 0 1 1 11 12H1a.997.997 0 0 1-1-1 .997.997 0 0 1 1-1h10a2 2 0 0 0 0-4M0 19a.997.997 0 0 1 1-1h20.084a5.998 5.998 0 0 1 4.242 10.243 6 6 0 0 1-6.539 1.301 6 6 0 0 1-3.704-5.543.997.997 0 0 1 1-1 .997.997 0 0 1 1 1 4 4 0 0 0 2.469 3.695 3.992 3.992 0 0 0 4.359-.867 4 4 0 0 0-2.828-6.828H.999a.997.997 0 0 1-1-1z"/>
    </symbol>
  </defs>
</svg>